<?xml version="1.0" encoding="utf-8"?>
<svg xmlns="http://www.w3.org/2000/svg" viewBox="1.992 1.992 20.016 20.01" fill="none" x="0px" y="0px">
  <path fill-rule="evenodd" clip-rule="evenodd" d="M2 3C2 2.44772 2.44772 2 3 2H12V4H4V20H20V12H22V21C22 21.5523 21.5523 22 21 22H3C2.44772 22 2 21.5523 2 21V3Z" fill="white"/>
  <path fill-rule="evenodd" clip-rule="evenodd" d="M18.0732 2C18.3384 2 18.5927 2.10536 18.7803 2.29289L21.7071 5.21972C22.0976 5.61025 22.0976 6.24341 21.7071 6.63394L12.9266 15.4144C12.7612 15.5798 12.543 15.682 12.3101 15.7032L9.09054 15.9959C8.79498 16.0228 8.50275 15.917 8.2929 15.7071C8.08304 15.4973 7.97724 15.205 8.00411 14.9095L8.29679 11.69C8.31797 11.457 8.42016 11.2388 8.58558 11.0734L17.3661 2.29289C17.5536 2.10536 17.808 2 18.0732 2ZM16.8532 5.63415L18.3659 7.14676L19.5858 5.92683L18.0732 4.41421L16.8532 5.63415ZM16.9516 8.56098L15.439 7.04836L10.2558 12.2316L10.1045 13.8955L11.7684 13.7442L16.9516 8.56098Z" fill="white"/>
</svg>