<?xml version="1.0" encoding="utf-8"?>
<svg xmlns="http://www.w3.org/2000/svg" version="1.1" x="0px" y="0px" viewBox="0.885 3.066 22.23 23.868" enable-background="new 0 0 24 24">
  <g transform="matrix(1, 0, 0, 1, 0.0005, 2.9995)">
    <path fill="none" stroke="#FFFFFF" stroke-width="1.3" stroke-linecap="round" stroke-linejoin="round" stroke-miterlimit="10" d="   M19.832,22.463c0,0.455-0.369,0.825-0.824,0.825H4.992c-0.455,0-0.824-0.369-0.824-0.825V6.858c0-0.455,0.369-0.824,0.824-0.824   h14.015c0.455,0,0.824,0.369,0.824,0.824V22.463z"/>
    <path fill="none" stroke="#FFFFFF" stroke-width="1.3" stroke-linecap="round" stroke-linejoin="round" stroke-miterlimit="10" d="   M1.518,2.813c0-0.538,0.436-0.973,0.973-0.973h19.017c0.538,0,0.973,0.436,0.973,0.973v3.221H1.518V2.813z"/>
    <line fill="none" stroke="#FFFFFF" stroke-width="1.3" stroke-linecap="round" stroke-linejoin="round" stroke-miterlimit="10" x1="7.878" y1="9.311" x2="7.878" y2="20.351"/>
    <line fill="none" stroke="#FFFFFF" stroke-width="1.3" stroke-linecap="round" stroke-linejoin="round" stroke-miterlimit="10" x1="14.157" y1="0.713" x2="9.843" y2="0.713"/>
    <line fill="none" stroke="#FFFFFF" stroke-width="1.3" stroke-linecap="round" stroke-linejoin="round" stroke-miterlimit="10" x1="12" y1="9.311" x2="12" y2="20.351"/>
    <line fill="none" stroke="#FFFFFF" stroke-width="1.3" stroke-linecap="round" stroke-linejoin="round" stroke-miterlimit="10" x1="16.122" y1="9.311" x2="16.122" y2="20.351"/>
  </g>
</svg>